<svg width="52" height="52" viewBox="0 0 52 52" fill="none" xmlns="http://www.w3.org/2000/svg">
<g filter="url(#filter0_d_257_58)">
<rect x="6" y="4" width="40" height="40" rx="20" fill="white"/>
</g>
<g clip-path="url(#clip0_257_58)">
<path d="M28.2067 21.7968C27.9998 21.7968 27.832 21.9646 27.832 22.1715V29.2535C27.832 29.4603 27.9998 29.6282 28.2067 29.6282C28.4137 29.6282 28.5814 29.4603 28.5814 29.2535V22.1715C28.5814 21.9646 28.4137 21.7968 28.2067 21.7968Z" fill="black"/>
<path d="M23.7849 21.7968C23.5779 21.7968 23.4102 21.9646 23.4102 22.1715V29.2535C23.4102 29.4603 23.5779 29.6282 23.7849 29.6282C23.9918 29.6282 24.1596 29.4603 24.1596 29.2535V22.1715C24.1596 21.9646 23.9918 21.7968 23.7849 21.7968Z" fill="black"/>
<path d="M20.5623 20.7633V29.9953C20.5623 30.5409 20.7624 31.0534 21.1119 31.421C21.4598 31.7898 21.944 31.9991 22.4507 31.9999H29.5403C30.0472 31.9991 30.5314 31.7898 30.8791 31.421C31.2287 31.0534 31.4288 30.5409 31.4288 29.9953V20.7633C32.1236 20.5789 32.5738 19.9076 32.4809 19.1946C32.3878 18.4818 31.7805 17.9486 31.0615 17.9485H29.143V17.4801C29.1452 17.0862 28.9895 16.708 28.7107 16.4297C28.4318 16.1516 28.053 15.9968 27.6591 16H24.3319C23.938 15.9968 23.5592 16.1516 23.2804 16.4297C23.0015 16.708 22.8458 17.0862 22.848 17.4801V17.9485H20.9295C20.2105 17.9486 19.6033 18.4818 19.5102 19.1946C19.4172 19.9076 19.8675 20.5789 20.5623 20.7633ZM29.5403 31.2505H22.4507C21.8101 31.2505 21.3117 30.7002 21.3117 29.9953V20.7962H30.6793V29.9953C30.6793 30.7002 30.181 31.2505 29.5403 31.2505ZM23.5974 17.4801C23.5949 17.285 23.6716 17.0972 23.8101 16.9594C23.9484 16.8217 24.1366 16.746 24.3319 16.7494H27.6591C27.8544 16.746 28.0426 16.8217 28.181 16.9594C28.3194 17.097 28.3961 17.285 28.3936 17.4801V17.9485H23.5974V17.4801ZM20.9295 18.6979H31.0615C31.434 18.6979 31.736 18.9998 31.736 19.3723C31.736 19.7449 31.434 20.0468 31.0615 20.0468H20.9295C20.557 20.0468 20.255 19.7449 20.255 19.3723C20.255 18.9998 20.557 18.6979 20.9295 18.6979Z" fill="black"/>
<path d="M25.9958 21.7968C25.7888 21.7968 25.6211 21.9646 25.6211 22.1715V29.2535C25.6211 29.4603 25.7888 29.6282 25.9958 29.6282C26.2028 29.6282 26.3705 29.4603 26.3705 29.2535V22.1715C26.3705 21.9646 26.2028 21.7968 25.9958 21.7968Z" fill="black"/>
</g>
<defs>
<filter id="filter0_d_257_58" x="0" y="0" width="52" height="52" filterUnits="userSpaceOnUse" color-interpolation-filters="sRGB">
<feFlood flood-opacity="0" result="BackgroundImageFix"/>
<feColorMatrix in="SourceAlpha" type="matrix" values="0 0 0 0 0 0 0 0 0 0 0 0 0 0 0 0 0 0 127 0" result="hardAlpha"/>
<feOffset dy="2"/>
<feGaussianBlur stdDeviation="3"/>
<feColorMatrix type="matrix" values="0 0 0 0 0 0 0 0 0 0 0 0 0 0 0 0 0 0 0.15 0"/>
<feBlend mode="normal" in2="BackgroundImageFix" result="effect1_dropShadow_257_58"/>
<feBlend mode="normal" in="SourceGraphic" in2="effect1_dropShadow_257_58" result="shape"/>
</filter>
<clipPath id="clip0_257_58">
<rect width="16" height="16" fill="white" transform="translate(18 16)"/>
</clipPath>
</defs>
</svg>
