<svg width="32" height="32" viewBox="0 0 32 32" fill="none" xmlns="http://www.w3.org/2000/svg">
<g id="004-placeholder" clip-path="url(#clip0_883_261)">
<g id="Group">
<path id="Vector" d="M16.0009 13.8666C18.0596 13.8666 19.7342 12.1914 19.7342 10.1332C19.7342 8.0751 18.0596 6.3999 16.0009 6.3999C13.9422 6.3999 12.2676 8.0751 12.2676 10.1332C12.2676 12.1914 13.9422 13.8666 16.0009 13.8666ZM16.0009 7.46657C17.4713 7.46657 18.6676 8.66284 18.6676 10.1332C18.6676 11.6036 17.4713 12.7999 16.0009 12.7999C14.5305 12.7999 13.3342 11.6036 13.3342 10.1332C13.3342 8.66284 14.5305 7.46657 16.0009 7.46657Z" fill="black"/>
<path id="Vector_2" d="M15.9055 29.2037L24.0874 17.3867C27.1562 13.2955 26.7124 6.57067 23.1375 2.99627C21.2058 1.064 18.6372 0 15.9055 0C13.1738 0 10.6052 1.064 8.67349 2.99573C5.09855 6.57013 4.65482 13.2949 7.71135 17.3701L15.9055 29.2037ZM9.42762 3.74987C11.1583 2.01973 13.4586 1.06667 15.9055 1.06667C18.3524 1.06667 20.6527 2.01973 22.3834 3.74987C25.61 6.976 26.0074 13.0496 23.2223 16.7627L15.9055 27.3296L8.57696 16.7467C5.80362 13.0496 6.20149 6.976 9.42762 3.74987Z" fill="black"/>
<path id="Vector_3" d="M22.4624 22.937C22.1691 22.9013 21.9045 23.1114 21.8704 23.4042C21.8363 23.697 22.0453 23.9621 22.3376 23.9962C27.9461 24.6565 30.9333 26.4357 30.9333 27.4666C30.9333 28.9141 25.2523 30.9333 16 30.9333C6.74773 30.9333 1.06667 28.9141 1.06667 27.4666C1.06667 26.4357 4.05387 24.6565 9.6624 23.9962C9.95467 23.9621 10.1637 23.6965 10.1296 23.4042C10.0949 23.1114 9.8304 22.9002 9.5376 22.937C3.92213 23.5984 0 25.4608 0 27.4666C0 29.7194 5.496 32 16 32C26.504 32 32 29.7194 32 27.4666C32 25.4608 28.0779 23.5984 22.4624 22.937Z" fill="black"/>
</g>
</g>
<defs>
<clipPath id="clip0_883_261">
<rect width="32" height="32" fill="white"/>
</clipPath>
</defs>
</svg>
